<svg role="img" aria-labelledby="checkbox-checked"
fill="none" height="512" viewBox="0 0 24 24" width="512" xmlns="http://www.w3.org/2000/svg"><title id="checkbox-checked">checkbox checked</title><path clip-rule="evenodd" d="m1 4.99999c0-2.18866 1.81136-3.99999 4-3.99999h14c2.1886 0 4 1.81133 4 3.99999v14.00001c0 2.1887-1.8114 4-4 4h-14c-2.18864 0-4-1.8113-4-4zm16.1616 4.25302c.3905-.39053.3905-1.02369 0-1.41422-.3905-.39052-1.0237-.39052-1.4142 0l-5.2819 5.28191-2.20219-2.271c-.38447-.3964-1.01756-.4062-1.41405-.0217-.39648.3845-.40622 1.0175-.02175 1.414l2.90909 3c.18649.1923.4423.3018.7102.3038.2679.0021.5254-.1034.7148-.2928z" fill="currentColor" fill-rule="evenodd"/></svg>