<?xml version="1.0" standalone="no"?>
<!DOCTYPE svg PUBLIC "-//W3C//DTD SVG 20010904//EN"
 "http://www.w3.org/TR/2001/REC-SVG-20010904/DTD/svg10.dtd">
<svg version="1.0" xmlns="http://www.w3.org/2000/svg"
 width="44" height="44" viewBox="0 0 104.000000 104.000000"
 preserveAspectRatio="xMidYMid meet">

<g transform="translate(0.000000,104.000000) scale(0.100000,-0.100000)"
fill="#000000" stroke="none">
<path d="M531 989 c-15 -45 -14 -119 4 -169 8 -23 15 -44 15 -45 0 -2 -13 -6
-29 -10 -35 -8 -121 -61 -121 -75 0 -5 13 -10 30 -10 53 0 137 -39 170 -78 37
-45 60 -111 60 -173 0 -44 2 -47 31 -53 58 -11 59 -10 59 52 -1 31 -9 81 -19
110 -15 42 -16 55 -6 59 23 8 51 -14 105 -82 28 -36 57 -65 64 -65 22 0 60 48
49 62 -5 7 -31 39 -56 71 -34 43 -47 68 -47 91 0 18 -7 41 -15 52 -9 12 -15
43 -15 84 l-1 65 -29 -33 c-38 -41 -44 -30 -38 67 3 63 2 69 -14 60 -22 -12
-64 -67 -73 -98 -9 -29 -13 -24 -68 72 l-45 78 -11 -32z" fill="#181818"/>
<path d="M110 931 c0 -5 18 -35 39 -69 27 -41 38 -67 34 -82 -6 -21 -9 -22
-86 -15 l-80 7 61 -74 c41 -49 62 -84 62 -101 0 -23 -6 -26 -62 -39 l-63 -13
63 -49 c58 -46 63 -53 60 -84 -3 -32 -7 -36 -62 -56 l-60 -22 47 -33 c26 -17
47 -37 47 -44 0 -17 -55 -110 -74 -126 -11 -9 -16 -30 -16 -62 l0 -49 316 0
316 0 -7 73 c-9 100 -30 176 -76 286 -22 52 -43 116 -46 144 -6 45 -9 51 -42
64 -19 8 -79 18 -133 20 l-97 6 24 47 c27 53 103 133 144 150 26 11 27 13 23
68 -2 31 -6 59 -8 61 -2 2 -39 -7 -81 -21 l-77 -26 -83 23 c-46 13 -83 20 -83
16z" fill="#181818"/>
<path d="M802 343 c-91 -44 -105 -158 -29 -231 34 -32 139 -92 163 -92 24 0
17 67 -12 116 -44 75 -11 101 50 40 40 -40 46 -34 46 44 0 38 -6 55 -27 81
-48 57 -126 74 -191 42z" fill="#FF4500"/>
</g>
</svg>
